<svg width="24" height="25" viewBox="0 0 24 25" fill="none" xmlns="http://www.w3.org/2000/svg">
<path fill-rule="evenodd" clip-rule="evenodd" d="M10.6759 12.5267L10.6774 12.8711C10.6892 14.2373 10.7716 15.4561 10.9136 16.2285C10.9136 16.2425 11.0686 17.0085 11.1672 17.2635C11.3221 17.6321 11.6023 17.9449 11.9535 18.1432C12.2347 18.2846 12.5296 18.3564 12.8385 18.3564C13.0811 18.3451 13.4815 18.223 13.7672 18.1206L14.0046 18.0296C15.5771 17.4049 18.5832 15.3638 19.7345 14.1157L19.8194 14.0284L20.1981 13.6196C20.4369 13.3067 20.5632 12.9242 20.5632 12.5128C20.5632 12.1443 20.4508 11.7756 20.2258 11.4778C20.1585 11.3813 20.0499 11.2575 19.9534 11.1529L19.5847 10.7669C18.3158 9.48136 15.5687 7.67812 14.1447 7.08063C14.1447 7.06778 13.2597 6.69813 12.8385 6.6842H12.7822C12.136 6.6842 11.5322 7.05277 11.2234 7.64849C11.1391 7.81135 11.0582 8.13037 10.9967 8.41055L10.886 8.93957C10.7597 9.79029 10.6759 11.0953 10.6759 12.5267ZM4.51711 11.0435C3.70962 11.0435 3.05493 11.7045 3.05493 12.5199C3.05493 13.3352 3.70962 13.9963 4.51711 13.9963L8.11529 13.6781C8.74877 13.6781 9.26233 13.1606 9.26233 12.5199C9.26233 11.8802 8.74877 11.3616 8.11529 11.3616L4.51711 11.0435Z" fill="white"/>
</svg>
