<svg width="40" height="40" viewBox="0 0 40 40" fill="none" xmlns="http://www.w3.org/2000/svg">
<path fill-rule="evenodd" clip-rule="evenodd" d="M0.858643 20.2037C0.858643 9.46622 9.59025 0.738831 20.3123 0.738831C31.0343 0.738831 39.7659 9.46622 39.7659 20.2037C39.7659 30.9186 31.0343 39.6461 20.3123 39.6461C9.59025 39.6461 0.858643 30.9186 0.858643 20.2037ZM27.4479 22.1724C27.6543 21.966 27.9173 21.647 27.9735 21.5719C28.2741 21.1778 28.4242 20.6899 28.4242 20.2037C28.4242 19.6575 28.2552 19.1507 27.936 18.7379C27.9099 18.7116 27.8585 18.656 27.7918 18.5833C27.6669 18.4475 27.4877 18.2522 27.3164 18.081C25.7766 16.4293 21.7581 13.7267 19.6551 12.9009C19.3359 12.7714 18.5284 12.488 18.0965 12.4692C17.6833 12.4692 17.289 12.563 16.9135 12.7507C16.4441 13.0135 16.0685 13.4264 15.862 13.9144C15.7305 14.2522 15.524 15.2657 15.524 15.2845C15.3174 16.3918 15.2048 18.1936 15.2048 20.1831C15.2048 22.0806 15.3174 23.8054 15.4864 24.9316C15.4911 24.9362 15.5072 25.0168 15.5323 25.1419C15.6086 25.5222 15.7675 26.3147 15.9371 26.6394C16.3502 27.4277 17.1577 27.9157 18.0214 27.9157H18.0965C18.6599 27.8969 19.8429 27.409 19.8429 27.3903C21.8334 26.5643 25.7577 23.9931 27.335 22.2851L27.4479 22.1724Z" fill="#FF2626"/>
</svg>
