<svg width="156" height="32" viewBox="0 0 156 32" fill="none" xmlns="http://www.w3.org/2000/svg">
<path d="M15.6186 0.67688L19.1127 11.4306L30.4198 11.4306L21.2721 18.0767L24.7662 28.8304L15.6186 22.1843L6.47092 28.8304L9.96501 18.0767L0.817367 11.4306L12.1245 11.4306L15.6186 0.67688Z" fill="#FFB84E"/>
<path d="M46.7443 0.67688L50.2384 11.4306L61.5455 11.4306L52.3979 18.0767L55.8919 28.8304L46.7443 22.1843L37.5967 28.8304L41.0907 18.0767L31.9431 11.4306L43.2502 11.4306L46.7443 0.67688Z" fill="#FFB84E"/>
<path d="M77.8703 0.67688L81.3644 11.4306L92.6715 11.4306L83.5238 18.0767L87.0179 28.8304L77.8703 22.1843L68.7226 28.8304L72.2167 18.0767L63.0691 11.4306L74.3762 11.4306L77.8703 0.67688Z" fill="#FFB84E"/>
<path d="M108.996 0.67688L112.49 11.4306L123.797 11.4306L114.65 18.0767L118.144 28.8304L108.996 22.1843L99.8484 28.8304L103.342 18.0767L94.1948 11.4306L105.502 11.4306L108.996 0.67688Z" fill="#FFB84E"/>
<path d="M140.122 0.67688L143.616 11.4306L154.923 11.4306L145.775 18.0767L149.269 28.8304L140.122 22.1843L130.974 28.8304L134.468 18.0767L125.321 11.4306L136.628 11.4306L140.122 0.67688Z" fill="#FFB84E"/>
</svg>
