<svg width="40" height="40" viewBox="0 0 40 40" fill="none" xmlns="http://www.w3.org/2000/svg">
<rect x="0.438843" y="0.798218" width="38.9072" height="38.9072" rx="19.4536" fill="#171717"/>
<g clip-path="url(#clip0_1_8664)">
<path fill-rule="evenodd" clip-rule="evenodd" d="M16.1813 27.3673C16.441 27.3673 16.6506 27.5778 16.6506 27.8366C16.6506 28.0962 16.441 28.3067 16.1813 28.3067C15.9217 28.3067 15.7121 28.0962 15.7121 27.8366C15.7121 27.5778 15.9217 27.3673 16.1813 27.3673Z" fill="white"/>
<path fill-rule="evenodd" clip-rule="evenodd" d="M25.9118 27.3673C26.1714 27.3673 26.3819 27.5778 26.3819 27.8366C26.3819 28.0962 26.1714 28.3067 25.9118 28.3067C25.6521 28.3067 25.4425 28.0962 25.4425 27.8366C25.4425 27.5778 25.6521 27.3673 25.9118 27.3673Z" fill="white"/>
<path d="M12.3821 12.7438L14.1763 13.0543L15.007 22.9511C15.0734 23.7593 15.7489 24.3796 16.5597 24.377H25.9699C26.7437 24.3787 27.4001 23.8094 27.5097 23.0434L28.3283 17.3863C28.4197 16.7541 27.9807 16.1675 27.3492 16.076C27.294 16.0683 14.4644 16.064 14.4644 16.064M22.1943 19.2521H24.5863M16.1813 27.3673C16.441 27.3673 16.6506 27.5778 16.6506 27.8366C16.6506 28.0962 16.441 28.3067 16.1813 28.3067C15.9217 28.3067 15.7121 28.0962 15.7121 27.8366C15.7121 27.5778 15.9217 27.3673 16.1813 27.3673ZM25.9118 27.3673C26.1714 27.3673 26.3819 27.5778 26.3819 27.8366C26.3819 28.0962 26.1714 28.3067 25.9118 28.3067C25.6521 28.3067 25.4425 28.0962 25.4425 27.8366C25.4425 27.5778 25.6521 27.3673 25.9118 27.3673Z" stroke="white" stroke-width="1.45902" stroke-linecap="round" stroke-linejoin="round"/>
</g>
<defs>
<clipPath id="clip0_1_8664">
<rect width="19.4536" height="19.4536" fill="white" transform="translate(10.1635 10.5253)"/>
</clipPath>
</defs>
</svg>
