<svg width="125" height="126" viewBox="0 0 125 126" fill="none" xmlns="http://www.w3.org/2000/svg">
<rect x="0.0778809" y="0.784546" width="124.503" height="124.503" rx="62.2516" fill="#FFE6E6"/>
<path d="M6.88672 109.608L20.6088 109.552L34.3309 109.531L61.7724 109.491L89.2139 109.531L102.936 109.55L116.658 109.608L102.936 109.664L89.2139 109.685L61.7724 109.725L34.3309 109.685L20.6088 109.664L6.88672 109.608Z" fill="#263238"/>
<path d="M104.036 85.2189C104.237 86.4602 104.164 87.7243 103.823 88.9413C103.662 89.5053 103.447 90.0562 103.181 90.5876C102.846 91.2672 102.499 91.9327 102.581 92.6777C102.662 92.7267 102.386 92.7197 102.375 92.6473C100.13 91.5124 97.254 91.3045 95.5328 89.4504C94.7143 88.5723 94.3037 87.4607 94.1063 86.3468C93.8932 85.1348 93.8432 83.792 94.1879 82.5987C94.4853 81.5876 95.1512 80.6138 96.2197 80.1187C97.2882 79.6236 98.7699 79.6516 99.9331 79.9716C102.433 80.6605 103.681 83.0658 104.036 85.2189Z" fill="#FF2626"/>
<path d="M105.196 99.9613C104.888 99.0552 104.583 98.1491 104.267 97.2454C103.651 95.4752 103.012 93.7121 102.304 91.97C101.879 90.9254 101.431 89.8909 100.959 88.8665C101.011 88.2216 101.098 87.5793 101.222 86.9422C101.412 86.1693 101.683 85.4243 101.938 84.6677C101.951 84.6233 101.867 84.5976 101.846 84.642C101.343 85.6835 100.685 87.0146 100.67 88.2476C100.12 87.08 99.5353 85.9474 98.9037 84.8218C98.8332 83.87 98.8667 82.9143 99.0037 81.9682C99.0037 81.9238 98.9353 81.9121 98.9274 81.9541C98.7358 82.7826 98.6624 83.6292 98.709 84.4739C98.2247 83.6285 97.7168 82.7948 97.1773 81.9705C97.1273 81.8981 97.0115 81.9705 97.0536 82.0452C97.8984 83.4884 98.68 84.9596 99.4222 86.4495C98.3896 85.6539 97.1953 85.0404 95.9035 84.642C95.8482 84.6233 95.8061 84.6957 95.8614 84.7167C97.2726 85.2574 98.5626 86.0192 99.6696 86.9656C100.196 88.0554 100.699 89.1553 101.178 90.2653C99.7722 89.044 97.851 88.2406 95.993 87.8086C95.9298 87.7946 95.9114 87.881 95.9719 87.8974C98.1247 88.4718 99.7959 89.553 101.433 90.8538C101.622 91.3022 101.809 91.7529 101.991 92.2012C102.686 93.9083 103.341 95.627 103.973 97.3528C104.273 98.1818 104.57 99.0085 104.862 99.8398C105.178 100.732 105.423 101.675 105.831 102.539C105.87 102.621 106.036 102.602 106.015 102.502C105.791 101.643 105.518 100.795 105.196 99.9613Z" fill="#263238"/>
<path d="M101.465 83.4744C101.065 84.0177 100.791 84.6256 100.657 85.2633C100.657 85.267 100.658 85.2705 100.661 85.2732C100.664 85.2758 100.668 85.2773 100.673 85.2773C100.677 85.2773 100.681 85.2758 100.684 85.2732C100.687 85.2705 100.688 85.267 100.688 85.2633C100.939 84.6631 101.232 84.0774 101.565 83.5095C101.599 83.4628 101.512 83.4231 101.465 83.4744Z" fill="#263238"/>
<path d="M97.459 87.6242C96.8344 87.3172 96.1523 87.1131 95.4457 87.0217C95.4273 87.0217 95.4168 87.045 95.4457 87.052C95.7694 87.1711 96.1089 87.2529 96.4379 87.3649C96.7669 87.477 97.0879 87.6148 97.4195 87.7176C97.4324 87.7189 97.4454 87.7164 97.4564 87.7104C97.4675 87.7044 97.476 87.6953 97.4805 87.6846C97.4851 87.6738 97.4854 87.662 97.4815 87.6511C97.4776 87.6401 97.4697 87.6307 97.459 87.6242Z" fill="#263238"/>
<path d="M96.3325 82.6312C96.1296 82.4955 95.9129 82.3767 95.6853 82.2764C95.6779 82.2745 95.6699 82.2747 95.6626 82.277C95.6553 82.2793 95.649 82.2837 95.6446 82.2894C95.6402 82.2951 95.638 82.3018 95.6382 82.3087C95.6384 82.3156 95.6411 82.3223 95.6459 82.3278C95.845 82.4681 96.0591 82.5909 96.2852 82.6942C96.3273 82.7176 96.372 82.6569 96.3325 82.6312Z" fill="#263238"/>
<path d="M111.602 91.9817C109.986 92.4091 108.36 92.8014 106.744 93.2241C106.604 93.2591 103.873 88.6143 104.859 86.2183C105.33 85.1334 106.067 84.1553 107.018 83.3553C107.969 82.5554 109.109 81.9539 110.355 81.5946C111.507 81.2466 112.926 80.9524 114.147 81.1929C115.231 81.4054 115.989 82.1924 116.35 83.0961C116.829 84.3268 116.668 85.7933 116.408 87.0497C116.203 88.2273 115.659 89.3381 114.829 90.2747C113.958 91.1808 112.863 91.6501 111.602 91.9817Z" fill="#FF2626"/>
<path d="M113.947 87.5657C112.925 88.0092 111.865 88.3794 110.776 88.6726C110.054 88.8468 109.349 89.0749 108.67 89.3545C109.355 88.0024 110.102 86.6807 110.897 85.3706C111.95 85.102 113.042 84.684 113.829 84.0278C113.838 84.021 113.843 84.0113 113.844 84.0008C113.845 83.9903 113.842 83.9798 113.834 83.9718C113.826 83.9637 113.815 83.9587 113.804 83.9578C113.792 83.957 113.78 83.9603 113.771 83.9671C112.908 84.5089 111.958 84.8312 111.005 85.1978C111.221 84.8452 111.436 84.4972 111.658 84.1423C111.721 84.0442 111.568 83.9461 111.494 84.0418C110.644 85.1367 109.877 86.2803 109.197 87.4653C109.023 86.4275 108.968 85.3768 109.031 84.3291C109.031 84.3235 109.029 84.3182 109.024 84.3142C109.02 84.3103 109.014 84.3081 109.007 84.3081C109.001 84.3081 108.995 84.3103 108.991 84.3142C108.986 84.3182 108.984 84.3235 108.984 84.3291C108.782 85.4721 108.796 86.6368 109.023 87.7759C108.457 88.7801 107.941 89.8076 107.476 90.8491C107.291 90.2232 107.052 89.6091 106.891 88.9809C106.648 88.077 106.569 87.1442 106.66 86.2183C106.66 86.1926 106.618 86.1903 106.612 86.2183C106.327 87.931 106.561 89.6802 107.291 91.2858C107.028 91.914 106.765 92.5421 106.528 93.1727C105.309 96.3888 104.587 99.737 104.383 103.126C104.386 103.139 104.395 103.152 104.407 103.161C104.419 103.17 104.435 103.174 104.45 103.174C104.466 103.174 104.482 103.17 104.494 103.161C104.506 103.152 104.514 103.139 104.518 103.126C104.941 99.7825 105.749 96.4866 106.928 93.2894C107.397 92.0401 107.936 90.8257 108.528 89.6348C109.484 89.3826 110.434 89.0439 111.373 88.7544C112.311 88.5056 113.196 88.1205 113.992 87.6148C114.013 87.5938 113.979 87.5517 113.947 87.5657Z" fill="#263238"/>
<path d="M115.461 86.216C114.474 86.5289 113.537 86.9656 112.547 87.2809C112.502 87.2972 112.529 87.3626 112.576 87.3533C113.629 87.1618 114.658 86.8745 115.5 86.2674C115.524 86.244 115.487 86.2067 115.461 86.216Z" fill="#263238"/>
<path d="M107.381 84.3244C107.381 84.2777 107.315 84.2496 107.299 84.2987C107.036 85.1067 106.841 85.9661 107.104 86.7927C107.104 86.8231 107.173 86.8254 107.176 86.7927C107.223 85.9544 107.17 85.1441 107.381 84.3244Z" fill="#263238"/>
<path d="M111.465 82.4562C111.149 82.8578 110.998 83.3432 111.036 83.8317C111.036 83.8621 111.094 83.8808 111.102 83.8434C111.223 83.3763 111.426 82.9583 111.584 82.51C111.587 82.4967 111.586 82.4828 111.579 82.4704C111.573 82.4581 111.562 82.448 111.548 82.4418C111.535 82.4356 111.519 82.4336 111.504 82.4363C111.489 82.4389 111.475 82.4459 111.465 82.4562Z" fill="#263238"/>
<path d="M92.3745 94.0322C92.8483 95.3679 93.9747 97.2128 95.7564 97.2268C96.9144 97.2268 98.0776 97.1147 99.2356 97.1007C100.478 97.082 101.72 97.0867 102.96 97.1521C103.062 97.1521 102.812 93.8547 99.8277 92.248C98.9935 91.7973 97.9697 91.6549 97.0223 91.4727C95.9372 91.2449 94.8235 91.1428 93.7088 91.1692C93.022 91.1925 92.4535 91.3209 92.2087 91.9445C91.964 92.568 92.1456 93.397 92.3745 94.0322Z" fill="#FF2626"/>
<path d="M93.6562 92.3624C94.3825 92.5282 95.1142 92.7174 95.8405 92.9229C95.6511 92.74 95.4508 92.5661 95.2405 92.4021C94.9273 92.1686 94.5825 91.9864 94.2483 91.7856C94.2194 91.7693 94.2483 91.7202 94.272 91.7342C94.9776 91.994 95.5874 92.4235 96.0327 92.9743C96.938 93.2358 97.8354 93.5207 98.7013 93.836C99.298 94.0533 99.87 94.3207 100.409 94.6346C100.236 94.3002 100.029 93.9805 99.7908 93.6795C99.3961 93.2241 98.8592 92.9789 98.3407 92.6473C98.3332 92.6407 98.3283 92.632 98.327 92.6227C98.3257 92.6133 98.3279 92.6038 98.3334 92.5958C98.3388 92.5877 98.3472 92.5815 98.3571 92.5781C98.367 92.5748 98.378 92.5745 98.3881 92.5773C98.9301 92.7864 99.417 93.0936 99.8176 93.4792C100.218 93.8648 100.524 94.3204 100.715 94.8168C101.336 95.2115 101.903 95.6683 102.407 96.1782C104.378 98.1679 105.933 100.814 105.939 103.516C105.939 103.579 105.823 103.597 105.81 103.53C105.3 100.882 103.997 98.4054 102.038 96.358C101.896 96.2101 101.752 96.07 101.604 95.9377C101.063 95.8726 100.518 95.8367 99.9724 95.8303C99.3382 95.8303 98.7092 95.912 98.0749 95.9587C97.0222 96.0334 95.8826 96.0451 94.9431 95.5804C94.9036 95.5594 94.9299 95.494 94.9773 95.5103C97.0827 96.1852 99.2671 95.3282 101.365 95.7439C100.472 94.9844 99.4241 94.3829 98.2776 93.9714L98.0854 93.9037C96.7432 94.0461 95.3247 94.3567 94.0141 93.9691C94.0061 93.9669 93.9993 93.962 93.9954 93.9554C93.9914 93.9489 93.9906 93.9412 93.993 93.934C93.9955 93.9269 94.001 93.9209 94.0084 93.9174C94.0158 93.9139 94.0245 93.9132 94.0325 93.9154C95.2958 94.1956 96.509 93.843 97.7565 93.7869C96.3985 93.3199 95.0142 92.9439 93.6509 92.4768C93.5351 92.4278 93.5325 92.3367 93.6562 92.3624Z" fill="#263238"/>
<path d="M93.0642 93.5345C93.7127 93.6114 94.3655 93.6559 95.0196 93.6676C95.0354 93.6676 95.0407 93.6886 95.0196 93.6909C94.3614 93.7989 93.6832 93.7604 93.0458 93.5789C93.0195 93.5718 93.0326 93.5298 93.0642 93.5345Z" fill="#263238"/>
<path d="M97.4801 92.3903C97.8419 92.5344 98.1702 92.737 98.4483 92.9879C98.4825 93.0159 98.4483 93.0696 98.4009 93.0439C98.2352 92.9388 98.0668 92.8385 97.8958 92.7404C97.7329 92.661 97.5757 92.573 97.4249 92.4766C97.4157 92.4687 97.4098 92.4583 97.408 92.4471C97.4063 92.4359 97.4087 92.4244 97.415 92.4146C97.4213 92.4047 97.4311 92.397 97.4429 92.3926C97.4547 92.3882 97.4678 92.3874 97.4801 92.3903Z" fill="#263238"/>
<path d="M108.012 96.6872C107.991 96.7316 108.062 96.7736 108.089 96.7269C108.1 96.7409 108.117 96.7508 108.136 96.755C109.336 97.0067 110.551 97.1938 111.776 97.3154C112.76 97.3925 113.897 97.4415 114.76 96.9348C115.931 96.2459 116.7 94.4057 116.076 93.2357C115.329 91.8486 113.073 92.6029 111.942 93.0956C110.2 93.8496 108.81 95.1201 108.012 96.6872Z" fill="#FF2626"/>
<path d="M107.139 97.3293C107.797 96.7656 108.527 96.2725 109.315 95.8604C109.88 95.0628 110.633 94.3826 111.521 93.8661C111.563 93.8381 111.6 93.8988 111.56 93.9268C110.854 94.4273 110.229 95.011 109.702 95.6619C110.58 95.2347 111.492 94.8663 112.431 94.5597C112.766 94.0075 113.275 93.5544 113.897 93.2566C113.91 93.2566 113.926 93.2566 113.913 93.2729C113.403 93.6191 112.959 94.0353 112.597 94.506C113.15 94.3238 113.71 94.151 114.271 93.9875C114.321 93.9735 114.339 94.0412 114.292 94.0576C113.297 94.4032 112.276 94.7582 111.289 95.1878C112.494 95.3571 113.721 95.3571 114.926 95.1878C114.96 95.1878 114.974 95.2252 114.939 95.2322C113.683 95.5631 112.348 95.5809 111.081 95.2836C110.452 95.5554 109.841 95.8595 109.252 96.1943C109.748 96.1571 110.248 96.1934 110.731 96.3018C111.584 96.4773 112.456 96.5651 113.331 96.5633C113.363 96.5633 113.371 96.61 113.331 96.6147C111.823 96.8482 110.397 96.2364 108.902 96.3952C107.245 97.3864 105.922 98.7586 105.075 100.365C104.446 101.502 104.104 102.7 103.596 103.88C103.593 103.89 103.585 103.9 103.574 103.905C103.562 103.911 103.549 103.912 103.537 103.909C103.525 103.906 103.515 103.898 103.508 103.889C103.502 103.879 103.501 103.867 103.504 103.856C103.939 101.533 105.239 98.9803 107.139 97.3293Z" fill="#263238"/>
<path d="M111.686 94.1556C111.786 93.9976 111.917 93.8568 112.073 93.7401C112.2 93.618 112.35 93.5175 112.518 93.4436C112.533 93.4436 112.541 93.4576 112.533 93.4669C112.41 93.5907 112.236 93.6817 112.102 93.8008C111.968 93.9198 111.857 94.0622 111.721 94.179C111.717 94.183 111.712 94.1856 111.706 94.1863C111.701 94.1869 111.695 94.1856 111.69 94.1825C111.686 94.1794 111.683 94.1748 111.682 94.1698C111.681 94.1647 111.683 94.1596 111.686 94.1556Z" fill="#263238"/>
<path d="M114.174 94.8749C114.397 94.8235 114.634 94.8282 114.86 94.7862C115.086 94.7377 115.309 94.6785 115.528 94.6088C115.557 94.6088 115.573 94.6391 115.549 94.6531C115.138 94.8781 114.655 94.9773 114.174 94.9356C114.167 94.9332 114.161 94.929 114.157 94.9236C114.153 94.9181 114.15 94.9118 114.15 94.9052C114.15 94.8987 114.153 94.8923 114.157 94.8869C114.161 94.8815 114.167 94.8773 114.174 94.8749Z" fill="#263238"/>
<path d="M100.925 100.996L101.123 102.99L101.794 109.725H107.739L108.579 102.99L108.826 100.996H100.925Z" fill="#37474F"/>
<path d="M100.925 100.996L101.123 102.99H108.579L108.826 100.996H100.925Z" fill="#263238"/>
<path d="M100.338 102.07H109.415V100.452H100.338V102.07Z" fill="#37474F"/>
<path d="M35.1755 34.3754C40.674 34.3754 45.1315 30.4201 45.1315 25.5411C45.1315 20.6621 40.674 16.7068 35.1755 16.7068C29.6769 16.7068 25.2195 20.6621 25.2195 25.5411C25.2195 30.4201 29.6769 34.3754 35.1755 34.3754Z" fill="#FF2626"/>
<path opacity="0.1" d="M36.7845 34.1053C41.9929 33.5411 45.6998 29.3372 45.0639 24.7156C44.4281 20.094 39.6904 16.8048 34.482 17.369C29.2735 17.9332 25.5667 22.1371 26.2025 26.7587C26.8384 31.3803 31.5761 34.6695 36.7845 34.1053Z" fill="black"/>
<path d="M36.1877 33.623C41.0938 33.3506 44.8222 29.6007 44.5152 25.2474C44.2083 20.8941 39.9823 17.5858 35.0762 17.8582C30.1701 18.1305 26.4417 21.8804 26.7486 26.2337C27.0556 30.5871 31.2816 33.8953 36.1877 33.623Z" fill="white"/>
<path opacity="0.5" d="M44.3314 24.0631C40.2784 26.2419 33.6174 29.8172 29.8934 31.7695C28.8411 30.9815 28.0088 29.9879 27.4617 28.8667L39.7758 18.7411C40.9267 19.2795 41.9309 20.0349 42.7179 20.9543C43.5049 21.8737 44.0556 22.9348 44.3314 24.0631Z" fill="#EBEBEB"/>
<path opacity="0.5" d="M44.5265 26.0154C44.4944 26.895 44.2951 27.7635 43.937 28.5842L32.8388 33.2406C32.3545 33.0991 31.8851 32.9201 31.436 32.7059C34.7889 30.9848 40.9157 27.8579 44.5265 26.0154Z" fill="#EBEBEB"/>
<path d="M35.7176 18.4141H35.5466V19.6116H35.7176V18.4141Z" fill="#263238"/>
<path d="M31.579 19.3571L31.4309 19.433L32.1057 20.4701L32.2538 20.3942L31.579 19.3571Z" fill="#263238"/>
<path d="M28.524 22.009L28.4385 22.1404L29.6073 22.7392L29.6928 22.6078L28.524 22.009Z" fill="#263238"/>
<path d="M28.7273 25.6627H27.3777V25.8144H28.7273V25.6627Z" fill="#263238"/>
<path d="M29.6105 28.7378L28.4417 29.3366L28.5272 29.468L29.696 28.8692L29.6105 28.7378Z" fill="#263238"/>
<path d="M32.1071 31.0083L31.4329 32.0458L31.581 32.1216L32.2552 31.0841L32.1071 31.0083Z" fill="#263238"/>
<path d="M35.7176 31.8651H35.5466V33.0627H35.7176V31.8651Z" fill="#263238"/>
<path d="M39.1591 31.007L39.011 31.0829L39.6858 32.12L39.8339 32.0441L39.1591 31.007Z" fill="#263238"/>
<path d="M41.6519 28.735L41.5664 28.8665L42.7352 29.4652L42.8207 29.3338L41.6519 28.735Z" fill="#263238"/>
<path d="M43.8863 25.6627H42.5366V25.8144H43.8863V25.6627Z" fill="#263238"/>
<path d="M42.7369 22.0143L41.5681 22.613L41.6536 22.7444L42.8224 22.1457L42.7369 22.0143Z" fill="#263238"/>
<path d="M39.683 19.3564L39.0088 20.3938L39.1569 20.4696L39.8311 19.4322L39.683 19.3564Z" fill="#263238"/>
<path d="M42.205 29.2029L34.9019 25.8004L35.3282 25.1536L42.3208 29.0277L42.205 29.2029Z" fill="#FF2626"/>
<path d="M35.5572 31.0618L35.1914 25.2307L36.0362 25.2423L35.7862 31.0641L35.5572 31.0618Z" fill="#455A64"/>
<path d="M35.9203 25.7396C35.9203 25.7905 35.9033 25.8403 35.8714 25.8826C35.8395 25.9248 35.7941 25.9577 35.7411 25.9771C35.688 25.9965 35.6297 26.0014 35.5735 25.9913C35.5173 25.9812 35.4657 25.9565 35.4254 25.9204C35.385 25.8842 35.3577 25.8383 35.3468 25.7883C35.3359 25.7383 35.342 25.6866 35.3643 25.6398C35.3867 25.5929 35.4242 25.5529 35.4721 25.525C35.52 25.4971 35.5762 25.4824 35.6336 25.4829C35.6715 25.4829 35.709 25.4895 35.7439 25.5024C35.7789 25.5154 35.8106 25.5343 35.8373 25.5582C35.8639 25.5821 35.885 25.6104 35.8993 25.6416C35.9135 25.6727 35.9207 25.706 35.9203 25.7396Z" fill="#263238"/>
<path d="M116.508 58.2301H75.2524V62.0996H116.508V58.2301Z" fill="#455A64"/>
<path d="M115.777 62.0995H75.9868V63.3559H115.777V62.0995Z" fill="#455A64"/>
<path d="M115.777 62.0995H75.9868V62.5152H115.777V62.0995Z" fill="#263238"/>
<path d="M76.2737 109.725H75.1025L78.5107 63.356H81.4951L76.2737 109.725Z" fill="#455A64"/>
<path d="M81.4951 63.3583L81.1451 66.4595H78.2817L78.5107 63.3583H81.4951Z" fill="#263238"/>
<path d="M115.487 109.725H116.658L113.253 63.356H110.266L115.487 109.725Z" fill="#455A64"/>
<path d="M110.266 63.3583L110.616 66.4595H113.479L113.253 63.3583H110.266Z" fill="#263238"/>
<path d="M84.69 57.6463L80.5239 57.6521L80.5249 58.2289L84.691 58.2231L84.69 57.6463Z" fill="#DBDBDB"/>
<path d="M84.6871 57.6487L80.521 57.6545L80.5217 58.0352L84.6878 58.0294L84.6871 57.6487Z" fill="#C7C7C7"/>
<path d="M75.5735 56.1074C75.8285 56.4387 76.1851 56.6983 76.6011 56.8556C77.0171 57.0128 77.4751 57.0611 77.9211 56.9948C78.066 56.9706 78.2079 56.9338 78.3448 56.885C78.5526 56.8136 78.7504 56.7211 78.9343 56.6095L78.4079 55.9089C78.309 55.9692 78.2042 56.0216 78.0948 56.0654C77.7917 56.1901 77.4479 56.2132 77.1271 56.1304C76.8063 56.0475 76.5302 55.8643 76.3499 55.6147C75.7788 54.9024 75.5604 53.2794 76.1472 52.6489C76.1867 52.6045 76.3525 52.5298 77.0236 52.6489C77.15 52.6746 77.2868 52.7003 77.4473 52.74C77.5712 52.7764 77.6991 52.8007 77.8289 52.8123L77.8447 52.3943L77.8921 51.9763C77.8246 51.9639 77.7578 51.9483 77.6921 51.9296C77.3816 51.8509 77.0649 51.7932 76.7447 51.7568C76.2499 51.7124 75.7314 51.7568 75.4156 52.1118C74.4734 53.1486 74.8577 55.206 75.5735 56.1074Z" fill="#DBDBDB"/>
<path d="M78.4024 55.9065C78.3035 55.9668 78.1988 56.0191 78.0894 56.0629L78.3524 56.8753C78.5602 56.8039 78.7579 56.7115 78.9418 56.5998L78.4024 55.9065Z" fill="#C7C7C7"/>
<path d="M76.7395 51.7709L77.0184 52.6626C77.1447 52.6883 77.2815 52.714 77.4419 52.7537C77.5657 52.7901 77.6937 52.8144 77.8234 52.826L77.8392 52.4082L77.8866 51.9903C77.819 51.9779 77.7523 51.9623 77.6866 51.9436C77.3763 51.865 77.0597 51.8072 76.7395 51.7709Z" fill="#C7C7C7"/>
<path d="M88.1375 50.6662C88.1375 50.6662 87.6428 54.433 86.7743 56.0233C85.9058 57.6136 84.7083 57.7864 83.9609 57.7887H81.2475C80.4975 57.7887 79.2921 57.6159 78.4263 56.0326C77.5604 54.4493 77.0525 50.6779 77.0525 50.6779L88.1375 50.6662Z" fill="#DBDBDB"/>
<path d="M116.358 58.2302H90.7195L91.5511 54.7623H106.779V50.4911H114.5L116.358 58.2302Z" fill="#FF2626"/>
<path d="M118.306 34.6721H89.917L89.4854 33.0328H118.735L118.306 34.6721Z" fill="#FF2626"/>
<path d="M106.779 34.6721L104.671 41.6942L103.455 43.058H94.1592L92.9459 41.6942L90.8379 34.6721H106.779Z" fill="#FF2626"/>
<path d="M106.779 34.6721L104.671 41.6942L103.455 43.058H94.1592L92.9459 41.6942L90.8379 34.6721H106.779Z" fill="#FF2626"/>
<path opacity="0.3" d="M104.67 41.6942L103.454 43.0579H94.159L92.9458 41.6942H104.67Z" fill="white"/>
<path opacity="0.2" d="M95.6462 41.6942H94.2645L93.217 34.6721H94.954L95.6462 41.6942Z" fill="white"/>
<path opacity="0.2" d="M96.5122 43.0579H95.1305L94.2646 41.6942H95.6463L96.5122 43.0579Z" fill="white"/>
<path opacity="0.2" d="M96.6726 41.6942H96.3147L95.6462 34.6721H95.9805L96.6726 41.6942Z" fill="white"/>
<path opacity="0.2" d="M97.5382 43.0579H97.1803L96.3145 41.6942H96.6724L97.5382 43.0579Z" fill="white"/>
<path opacity="0.3" d="M109.332 52.3102H112.366L113.35 56.4086H109.332V52.3102Z" fill="white"/>
<path d="M111.95 54.3606C111.95 54.5194 111.896 54.6745 111.796 54.8063C111.696 54.9381 111.555 55.0407 111.389 55.1011C111.224 55.1615 111.042 55.1771 110.867 55.1459C110.691 55.1146 110.53 55.0379 110.404 54.9255C110.277 54.813 110.191 54.6699 110.157 54.5141C110.122 54.3584 110.14 54.197 110.209 54.0503C110.277 53.9037 110.393 53.7783 110.542 53.6902C110.691 53.602 110.866 53.5549 111.045 53.5549C111.164 53.5549 111.282 53.5758 111.392 53.6163C111.502 53.6568 111.602 53.7162 111.686 53.791C111.77 53.8659 111.837 53.9547 111.882 54.0525C111.927 54.1502 111.95 54.2549 111.95 54.3606Z" fill="#263238"/>
<path d="M106.779 50.4911V34.6721H117.361L114.5 50.4911H106.779Z" fill="#FF2626"/>
<path opacity="0.3" d="M109.332 46.4512V37.3857H113.579L111.942 46.4512H109.332Z" fill="white"/>
<path d="M112.448 38.4902H110.34V38.8662H112.448V38.4902Z" fill="#263238"/>
<path d="M111.884 41.7643H110.34V42.1403H111.884V41.7643Z" fill="#263238"/>
<path d="M111.26 45.0406H110.34V45.4164H111.26V45.0406Z" fill="#263238"/>
<path opacity="0.1" d="M90.8379 34.6721H117.361L117.164 35.7533L90.9853 35.1672L90.8379 34.6721Z" fill="black"/>
<path opacity="0.1" d="M106.779 50.491H114.5L114.643 51.0818L106.779 51.5746V50.491Z" fill="black"/>
<path d="M103.723 45.3792V45.7224H95.0593V45.3792L95.9831 44.6436H102.797L103.723 45.3792Z" fill="#455A64"/>
<path d="M103.723 45.3793H95.0593V45.7226H103.723V45.3793Z" fill="#37474F"/>
<path d="M95.0592 47.0325H92.3616C92.3616 47.0325 90.2562 48.7396 90.2562 50.5518V53.5339H92.2326V54.7552H88.9219V50.4911C88.9219 47.2918 92.1405 45.7225 92.1405 45.7225H95.0592V47.0325Z" fill="#37474F"/>
<path opacity="0.7" d="M106.539 51.3528V54.7622H92.2407V51.3528C92.2407 49.2277 95.0594 47.0396 95.0594 47.0396V45.7225H104.584L103.723 46.5772V47.0442C103.723 47.0442 106.539 49.2277 106.539 51.3528Z" fill="#EBEBEB"/>
<path d="M105.905 51.3645V54.4704H92.8775V51.3645C92.8766 51.2007 92.8942 51.0372 92.9301 50.8765H105.852C105.888 51.0372 105.906 51.2007 105.905 51.3645Z" fill="#FF2626"/>
<path opacity="0.6" d="M105.905 51.3645V54.4704H92.8775V51.3645C92.8766 51.2007 92.8942 51.0372 92.9301 50.8765H105.852C105.888 51.0372 105.906 51.2007 105.905 51.3645Z" fill="black"/>
<path d="M106.539 53.5549H92.2407V54.7599H106.539V53.5549Z" fill="#C7C7C7"/>
<path opacity="0.2" d="M95.3907 53.5549H94.2646V54.7595H95.3907V53.5549Z" fill="white"/>
<path opacity="0.2" d="M96.4146 53.5549H95.9016V54.7595H96.4146V53.5549Z" fill="white"/>
<path opacity="0.2" d="M94.2643 53.5549H95.3907V51.0328C95.3907 49.0829 97.7593 47.0629 97.7593 47.0629V45.7318H96.8566V47.0325C96.8566 47.0325 94.2617 49.3024 94.2617 50.9534L94.2643 53.5549Z" fill="white"/>
<path opacity="0.2" d="M95.9016 53.5549H96.4148V51.0328C96.4148 49.0829 98.7834 47.0629 98.7834 47.0629V45.7318H98.4939V47.0325C98.4939 47.0325 95.8989 49.3024 95.8989 50.9534L95.9016 53.5549Z" fill="white"/>
<path d="M37.4759 96.4956L19.1482 109.608H20.1825L41.3472 96.4956H37.4759Z" fill="#C7C7C7"/>
<path d="M39.1973 96.4955L30.1414 109.608H31.1756L42.2738 96.4955H39.1973Z" fill="#C7C7C7"/>
<path d="M43.6369 96.4955L52.6928 109.608H51.6612L40.563 96.4955H43.6369Z" fill="#C7C7C7"/>
<path d="M45.2214 96.4955L63.5491 109.608H62.5148L41.3474 96.4955H45.2214Z" fill="#C7C7C7"/>
<path d="M75.8077 91.6848V87.848L50.64 86.9326L37.3469 55.4371H6.88672L17.6638 91.6848L43.4131 98.0974H45.0264L75.8077 91.6848Z" fill="#FF2626"/>
<path opacity="0.1" d="M6.88672 55.4371H10.3712L21.601 88.4785L44.3816 94.2046L75.8077 87.848V91.6848L45.0264 98.0974H43.4131L17.6638 91.6848L6.88672 55.4371Z" fill="black"/>
<path d="M96.5962 109.477C95.7856 109.494 74.7235 103.716 74.0787 103.046C74.0076 102.971 74.3418 100.204 74.8814 98.0088C74.9077 97.9037 67.4019 89.1769 67.4019 89.1769L80.9845 84.4947L87.4744 96.4278L89.143 99.5314C89.143 99.5314 96.1698 105.799 96.7909 106.603C97.412 107.406 97.4094 109.461 96.5962 109.477Z" fill="#EBEBEB"/>
<path d="M97.1907 109.582C96.3433 109.601 74.3548 103.646 73.6784 102.948C73.4152 102.686 73.8126 101.479 74.8811 98.0087L89.2954 99.5476C89.2954 99.5476 96.7354 105.748 97.3855 106.584C98.0355 107.42 98.0355 109.561 97.1907 109.582Z" fill="#FF2626"/>
<path opacity="0.2" d="M97.1907 109.582C96.3433 109.601 74.3548 103.646 73.6784 102.948C73.4152 102.686 73.8126 101.479 74.8811 98.0087L89.2954 99.5476C89.2954 99.5476 96.7354 105.748 97.3855 106.584C98.0355 107.42 98.0355 109.561 97.1907 109.582Z" fill="black"/>
<path d="M97.1434 108.716C93.4852 107.637 78.6157 103.592 74.9075 102.773C74.876 102.773 74.8707 102.784 74.9075 102.794C78.5078 103.933 93.4142 107.87 97.1329 108.77C97.2039 108.788 97.2197 108.739 97.1434 108.716Z" fill="#263238"/>
<path d="M96.2144 105.498C95.8075 105.378 95.3769 105.333 94.9498 105.368C94.5227 105.402 94.1082 105.515 93.7326 105.699C93.0554 106.025 92.5456 106.57 92.3088 107.221C92.3088 107.242 92.3431 107.254 92.3536 107.235C92.701 106.621 93.2638 106.124 93.9572 105.818C94.6506 105.512 95.4372 105.415 96.1986 105.54C96.2041 105.54 96.2095 105.538 96.214 105.536C96.2185 105.533 96.2218 105.529 96.2236 105.524C96.2253 105.519 96.2254 105.514 96.2237 105.51C96.2221 105.505 96.2188 105.501 96.2144 105.498Z" fill="#263238"/>
<path d="M90.7853 100.839C89.3168 100.421 87.4482 100.419 86.1613 101.241C86.1113 101.273 86.1613 101.336 86.2139 101.327C87.7109 101.077 89.2337 100.97 90.7564 101.007C90.7792 101.007 90.8011 100.999 90.8182 100.986C90.8353 100.972 90.8466 100.954 90.8501 100.934C90.8535 100.914 90.8489 100.893 90.8371 100.876C90.8252 100.859 90.8069 100.846 90.7853 100.839Z" fill="#263238"/>
<path d="M91.7878 101.542C90.3193 101.124 88.4507 101.122 87.1664 101.944C87.1164 101.976 87.1664 102.039 87.219 102.03C88.715 101.779 90.237 101.671 91.7589 101.708C91.7828 101.71 91.8067 101.703 91.8256 101.69C91.8446 101.677 91.8572 101.658 91.8609 101.637C91.8645 101.616 91.859 101.594 91.8455 101.577C91.8319 101.559 91.8113 101.547 91.7878 101.542Z" fill="#263238"/>
<path d="M92.7931 102.243C91.322 101.825 89.4534 101.825 88.1691 102.647C88.1191 102.679 88.1691 102.74 88.2217 102.733C89.7177 102.482 91.2396 102.374 92.7615 102.411C92.7846 102.411 92.8069 102.403 92.8245 102.39C92.8421 102.377 92.8538 102.359 92.8576 102.338C92.8614 102.318 92.857 102.298 92.8452 102.28C92.8334 102.262 92.8149 102.249 92.7931 102.243Z" fill="#263238"/>
<path d="M93.7956 102.945C92.327 102.527 90.4558 102.527 89.1715 103.349C89.1215 103.38 89.1715 103.443 89.2242 103.436C90.7202 103.185 92.2421 103.077 93.764 103.114C93.787 103.114 93.8093 103.106 93.8269 103.093C93.8445 103.08 93.8562 103.062 93.86 103.041C93.8638 103.021 93.8594 103 93.8476 102.983C93.8358 102.965 93.8174 102.952 93.7956 102.945Z" fill="#263238"/>
<path d="M93.5803 97.7776C93.025 97.0256 91.8986 97.3105 91.2406 97.7542C90.1285 98.5392 89.2689 99.5701 88.7483 100.743C88.7463 100.749 88.7457 100.754 88.7464 100.76C88.7471 100.765 88.7491 100.77 88.7524 100.775C88.7557 100.78 88.7601 100.784 88.7653 100.787C88.7705 100.79 88.7764 100.792 88.7825 100.792C88.7825 100.895 88.8799 101.007 89.0115 100.97C90.2827 100.61 91.6933 100.365 92.8039 99.6691C93.4513 99.2581 94.1093 98.4875 93.5803 97.7776ZM90.8143 100.068C90.1932 100.26 89.5668 100.421 88.9536 100.634C89.4198 100.04 89.9196 99.4681 90.4511 98.9195C90.7132 98.6574 90.9945 98.4108 91.2933 98.1816C91.7643 97.836 93.5882 97.1331 93.246 98.5973C93.0565 99.4053 91.5538 99.8419 90.8143 100.068Z" fill="#263238"/>
<path d="M84.9162 100.23C86.14 100.753 87.5769 100.788 88.9007 100.956C88.9301 100.957 88.9593 100.952 88.9861 100.941C89.0129 100.931 89.0366 100.915 89.0552 100.894C89.0739 100.874 89.087 100.851 89.0935 100.825C89.1 100.8 89.0998 100.773 89.0928 100.748C89.0991 100.746 89.1049 100.743 89.1097 100.74C89.1145 100.736 89.1182 100.731 89.1205 100.725C89.1228 100.72 89.1236 100.714 89.1229 100.708C89.1222 100.702 89.12 100.697 89.1165 100.692C88.3817 99.6164 87.3417 98.7306 86.1005 98.1232C85.3689 97.7799 84.2083 97.6678 83.7977 98.4898C83.4108 99.2628 84.203 99.926 84.9162 100.23ZM84.2819 99.2441C83.6714 97.843 85.5978 98.275 86.1242 98.5435C86.4609 98.7262 86.7844 98.9274 87.0927 99.146C87.7192 99.6094 88.3192 100.1 88.8902 100.617C88.2454 100.5 87.598 100.43 86.9479 100.335C86.1821 100.223 84.6188 100.012 84.2819 99.2441Z" fill="#263238"/>
<path d="M88.1482 96.9859L73.1918 98.9452C73.1918 98.9452 65.028 85.7977 61.7304 82.5284C61.5452 82.3403 61.3437 82.1654 61.1277 82.0053C60.7869 81.8701 60.4213 81.791 60.0487 81.7717C55.6273 81.3047 40.742 82.5797 30.4543 81.9889L35.2573 76.2909L37.3864 73.7642C48.9663 72.5965 63.1963 68.3931 69.6126 71.2444C76.5631 74.3246 88.1482 96.9859 88.1482 96.9859Z" fill="#263238"/>
<path d="M86.2742 94.7301C83.7319 95.022 84.4556 94.9076 81.9186 95.2228C80.6738 95.377 74.4286 96.1359 73.2969 96.4512C73.2916 96.4527 73.2871 96.4557 73.2838 96.4597C73.2806 96.4637 73.2788 96.4684 73.2788 96.4734C73.2788 96.4783 73.2806 96.4831 73.2838 96.4871C73.2871 96.491 73.2916 96.494 73.2969 96.4956C74.4838 96.4956 80.7106 95.6222 81.9502 95.4494C84.482 95.0944 83.7503 95.1738 86.2795 94.7932C86.2871 94.7908 86.2938 94.7863 86.2982 94.7802C86.3027 94.7742 86.3048 94.767 86.3042 94.7598C86.3036 94.7526 86.3003 94.7458 86.2949 94.7404C86.2895 94.7351 86.2822 94.7314 86.2742 94.7301Z" fill="#37474F"/>
<path d="M73.2679 96.2666C71.5756 93.7539 63.8777 81.3607 62.3328 80.8703C60.938 80.4266 32.999 80.9427 32.5938 80.945C32.5648 80.945 32.5622 80.9847 32.5938 80.9847C35.9019 80.9473 61.438 80.8656 62.167 81.1225C63.6803 81.6526 72.8968 96.0331 73.1231 96.3343C73.1731 96.4137 73.3258 96.353 73.2679 96.2666Z" fill="#37474F"/>
<path d="M22.6194 76.7837C22.6194 76.7837 21.7378 84.2565 26.0118 87.9765C31.1253 92.4275 64.8857 91.3043 70.1177 89.8027C75.3497 88.3011 75.5128 80.812 69.794 79.0746C64.3541 77.4235 40.2312 76.4754 39.6601 76.2723C39.0891 76.0691 37.4152 73.7035 37.4152 73.7035L22.6194 76.7837Z" fill="#263238"/>
<path d="M29.7648 76.5735C29.7648 76.5385 29.6937 76.5501 29.6937 76.5735C29.6988 77.5464 29.3156 78.4895 28.612 79.2357C27.8225 80.0577 26.6303 80.5177 25.5592 80.9965C25.4565 81.0432 25.5329 81.1856 25.6408 81.1576C26.2986 80.9793 26.9323 80.7374 27.5304 80.436C28.0792 80.1754 28.5626 79.8187 28.9515 79.3875C29.2992 78.9939 29.551 78.5406 29.691 78.0562C29.8309 77.5718 29.8561 77.0669 29.7648 76.5735Z" fill="#37474F"/>
<path d="M39.4288 75.8075C39.1919 75.5366 38.9314 75.2797 38.6813 75.0158C38.0918 74.3946 37.4997 73.7688 36.8812 73.1686C36.8233 73.1103 36.7102 73.192 36.7628 73.255C37.1786 73.7361 37.6207 74.2032 38.0524 74.6749L38.7208 75.3965C38.9562 75.6103 39.1661 75.8451 39.3472 76.097C39.5077 76.3633 39.2946 76.5921 38.984 76.6225C38.7071 76.6286 38.438 76.5409 38.2313 76.3773C37.764 76.0097 37.3366 75.6039 36.9549 75.1653C36.7049 74.9177 36.4575 74.6702 36.2049 74.425C35.9522 74.1798 35.6522 73.9182 35.3837 73.659C35.3679 73.6427 35.3337 73.659 35.3495 73.6847C35.5838 73.9673 35.7996 74.2662 36.0338 74.5488C36.268 74.8313 36.5049 75.1162 36.7444 75.3965C36.9839 75.6767 37.2102 75.9196 37.4523 76.1741C37.6557 76.3979 37.8994 76.5905 38.1734 76.7439C38.6208 76.9774 39.3972 77.0265 39.6341 76.5104C39.6732 76.3876 39.6748 76.2578 39.6387 76.1343C39.6026 76.0107 39.5302 75.8979 39.4288 75.8075Z" fill="#37474F"/>
<path d="M69.4048 89.8307C67.602 89.861 65.8019 89.9544 64.0018 89.9871C62.2016 90.0198 60.4278 90.0315 58.6408 90.0151C55.0511 89.9856 51.4649 89.8618 47.8821 89.6438C44.2634 89.4103 40.3605 89.1021 36.7655 88.6607C35.0443 88.4482 33.3021 88.273 31.602 87.9484C30.0735 87.6908 28.66 87.0506 27.528 86.1036C25.2015 84.1 24.2962 81.1529 23.9224 78.3389C23.8724 77.9606 23.833 77.5823 23.7988 77.204C23.7988 77.1783 23.7514 77.1783 23.754 77.204C23.9646 80.0903 24.4699 83.1005 26.5147 85.4194C27.3794 86.4305 28.5284 87.2221 29.8466 87.7149C31.4572 88.2871 33.2442 88.4155 34.9443 88.6257C38.5525 89.06 42.4712 89.3963 46.1004 89.6462C49.7296 89.896 53.4168 90.0548 57.0802 90.1015C60.7436 90.1482 64.4071 90.1015 68.0679 89.9451C68.5126 89.9241 68.96 89.9007 69.4048 89.868C69.4285 89.8657 69.4285 89.8307 69.4048 89.8307Z" fill="#37474F"/>
<path d="M74.2103 82.846C73.868 81.5932 73.0075 80.5005 71.7996 79.7844C70.5021 78.9975 68.952 78.6402 67.415 78.4417C65.678 78.2082 63.92 78.1031 62.1725 77.9536C58.5898 77.6422 55.0035 77.3566 51.4138 77.0966C47.8293 76.835 40.0972 76.3026 39.6708 76.2886C39.6313 76.2886 39.6234 76.3446 39.6708 76.347C43.1316 76.6879 46.2818 76.9821 49.7505 77.2624C53.2192 77.5426 56.7221 77.8368 60.2039 78.1428C61.9409 78.2984 63.6761 78.4541 65.4096 78.6098C67.0176 78.7569 68.6704 78.9017 70.1784 79.4528C71.4732 79.9199 72.6365 80.6859 73.2944 81.8021C73.9127 82.9013 74.098 84.1527 73.8208 85.3564C73.5782 86.4779 72.9939 87.519 72.1312 88.3665C71.3085 89.2029 70.2116 89.79 68.9941 90.0455C68.6783 90.1063 68.294 90.1506 68.0019 90.202C67.9808 90.202 67.9572 90.2487 67.9808 90.2487C70.5731 90.3071 72.9812 88.6257 73.9076 86.524C74.4302 85.3543 74.5359 84.0706 74.2103 82.846Z" fill="#37474F"/>
<path d="M35.4387 58.3585C37.3836 63.3302 41.3681 70.7914 43.1472 71.4803C46.1105 72.6269 53.0005 73.4069 57.0798 73.2387C58.3667 73.185 57.4588 64.7291 56.0613 64.68C52.4584 64.5539 47.0922 64.5119 46.7185 64.4301C46.0421 64.2854 41.9418 60.0702 38.8232 56.7915C35.894 53.6973 34.5228 56.0139 35.4387 58.3585Z" fill="#EB9481"/>
<path d="M61.4776 71.924C60.9197 72.0805 61.0092 72.342 61.9855 72.6666C62.9619 72.9912 67.1359 73.54 66.7964 74.8151C66.4569 76.0901 60.5802 75.2424 59.0011 74.5815C57.4221 73.9207 55.1245 72.3887 55.1245 72.3887C56.3062 72.3607 59.1617 72.0198 61.4776 71.924Z" fill="#EB9481"/>
<path d="M55.7639 64.6964C59.0957 64.6964 63.2434 64.5166 66.4805 66.2096C66.8467 66.3885 67.1335 66.6726 67.2937 67.0153C68.7622 67.7509 68.8096 68.5869 68.8096 68.5869C69.9413 69.6424 69.8623 70.5018 69.8623 70.5018C69.8623 70.5018 71.5756 71.3822 71.1466 72.3887C70.6703 73.519 68.3596 72.0618 66.5384 71.9497C62.3618 71.6928 56.3429 72.3653 55.1296 72.398L55.7639 64.6964Z" fill="#EB9481"/>
<path d="M62.3673 68.9512C63.5904 69.0148 64.8072 69.1513 66.0096 69.3599C67.3089 69.6654 68.5808 70.0557 69.8152 70.5275C69.8229 70.5309 69.8318 70.5315 69.8399 70.5291C69.848 70.5267 69.8548 70.5215 69.8586 70.5147C69.8625 70.5079 69.8631 70.5 69.8604 70.4928C69.8577 70.4856 69.8518 70.4796 69.8441 70.4762C67.7071 69.3669 64.8438 68.8065 62.3725 68.9116C62.312 68.9045 62.2988 68.9466 62.3673 68.9512Z" fill="#263238"/>
<path d="M62.1778 66.6931C63.3647 66.8448 65.4517 67.1274 68.7941 68.6173C68.7941 68.6173 68.8177 68.6173 68.7941 68.6009C66.8376 67.4196 64.5497 66.7437 62.1857 66.6487C62.1094 66.6487 62.0988 66.6814 62.1778 66.6931Z" fill="#263238"/>
<path d="M62.0988 65.4811C64.1094 65.8104 65.3279 66.2447 67.2834 67.0247C67.2834 67.0247 67.307 67.0247 67.2834 67.006C65.1779 65.9131 64.2594 65.7286 62.0909 65.418C62.0356 65.404 62.0198 65.4647 62.0988 65.4811Z" fill="#263238"/>
<path d="M55.2875 64.5586L54.7612 73.7805C54.7612 73.7805 43.8867 72.9304 42.3655 71.4686C40.8444 70.0067 36.1151 61.5368 35.1913 58.0899C34.2675 54.6431 36.6651 54.3535 38.831 56.551C40.997 58.7485 46.5343 64.0658 46.8238 64.1195C47.1132 64.1733 55.2875 64.5586 55.2875 64.5586Z" fill="#455A64"/>
<path d="M52.6954 71.2235C52.727 70.7222 52.7595 70.2209 52.7928 69.7196C52.8586 68.7388 52.9402 67.7603 53.0218 66.7818C53.0665 66.2424 53.1218 65.7006 53.1481 65.1588C53.1481 65.1261 53.0928 65.1238 53.0876 65.1588C52.9033 66.1233 52.8086 67.1018 52.7191 68.0756C52.6296 69.0494 52.5612 70.0091 52.527 70.9783C52.5086 71.5341 52.527 72.0875 52.527 72.6456C52.527 72.6643 52.5665 72.6667 52.5691 72.6456C52.6033 72.1692 52.6638 71.6975 52.6954 71.2235Z" fill="#263238"/>
<path d="M49.6847 73.2481C46.6239 72.8511 43.1658 72.2463 42.3552 71.4687C40.8314 70.0044 36.1152 61.5368 35.1809 58.09C34.8414 56.8313 34.9441 55.9883 35.3231 55.5422L49.6847 73.2481Z" fill="#263238"/>
<path d="M21.8748 78.9485L42.4026 74.4508C42.679 74.1705 39.8761 59.4001 36.3337 55.2433C35.4495 54.2042 32.4413 54.1341 31.0386 55.0799C24.1012 59.7597 21.8853 78.7079 21.8748 78.9485Z" fill="#455A64"/>
<path opacity="0.6" d="M57.4355 63.3326C57.4355 63.3326 61.8121 61.5344 61.8095 59.1291C61.8068 56.7238 56.1222 55.2059 56.1169 53.3213C56.1117 51.4368 58.5908 50.3392 58.5908 50.3392C58.5908 50.3392 54.68 51.5302 54.6826 53.9028C54.6853 56.2754 58.4355 57.8728 58.7961 59.3883C59.2961 61.4831 57.4355 63.3326 57.4355 63.3326Z" fill="#EBEBEB"/>
<path opacity="0.6" d="M57.6511 63.3325C57.6511 63.3325 53.2692 61.9314 53.2666 60.0422C53.264 58.1529 58.9407 56.9316 58.9381 55.4581C58.9354 53.9845 56.4563 53.1228 56.4563 53.1228C56.4563 53.1228 60.3724 54.0569 60.375 55.9251C60.3777 57.7933 56.08 59.08 55.7747 60.5956C55.4694 62.1112 57.6511 63.3325 57.6511 63.3325Z" fill="#EBEBEB"/>
<path d="M59.577 69.3622L55.4109 69.368L55.4119 69.9448L59.578 69.939L59.577 69.3622Z" fill="#FF2626"/>
<path opacity="0.1" d="M59.577 69.3622L55.4109 69.368L55.4116 69.7486L59.5777 69.7428L59.577 69.3622Z" fill="black"/>
<path d="M50.4557 67.8163C50.746 68.2087 51.1798 68.5005 51.684 68.6425C52.1882 68.7845 52.7321 68.7682 53.2244 68.5963C53.4319 68.5244 53.6297 68.4319 53.8139 68.3207L53.2875 67.6201C53.1886 67.6805 53.0838 67.7328 52.9743 67.7766C52.676 67.8997 52.3379 67.9243 52.0209 67.846C51.704 67.7676 51.4289 67.5915 51.2453 67.3492C50.6715 66.6487 50.4557 65.014 51.0426 64.3858C51.0821 64.3391 51.2479 64.2644 51.919 64.3858C52.0427 64.4115 52.1822 64.4372 52.3427 64.4769C52.4662 64.5145 52.5943 64.5388 52.7243 64.5493L52.7401 64.1313L52.7849 63.7133L52.5848 63.6689C52.2749 63.588 51.958 63.5294 51.6374 63.4938C51.1453 63.4494 50.6268 63.4937 50.3215 63.8487C49.3583 64.8692 49.7425 66.9336 50.4557 67.8163Z" fill="#FF2626"/>
<path opacity="0.1" d="M53.2901 67.6342C53.1912 67.6945 53.0864 67.7468 52.9771 67.7906L53.2401 68.6053C53.4476 68.5334 53.6453 68.441 53.8294 68.3298L53.2901 67.6342Z" fill="black"/>
<path opacity="0.1" d="M51.6243 63.4891L51.9058 64.3808C52.0294 64.4065 52.1689 64.4322 52.3293 64.4719C52.4528 64.5094 52.5809 64.5337 52.7108 64.5442L52.7266 64.1264L52.7713 63.7085L52.5714 63.6642C52.2615 63.5833 51.9448 63.5247 51.6243 63.4891Z" fill="black"/>
<path d="M63.0223 62.3845C63.0223 62.3845 62.5302 66.1536 61.6696 67.7415C60.809 69.3295 59.6036 69.507 58.8536 69.507H56.1297C55.3822 69.507 54.1769 69.3318 53.311 67.7485C52.4452 66.1652 51.9373 62.3938 51.9373 62.3938L63.0223 62.3845Z" fill="#FF2626"/>
<g opacity="0.1">
<path d="M62.4357 65.5139C62.3514 65.8619 62.2567 66.2145 62.1541 66.5274L52.8218 66.5414C52.7165 66.2192 52.6218 65.8759 52.5349 65.5279L62.4357 65.5139Z" fill="black"/>
<path d="M62.0356 66.9126C61.9724 67.0924 61.9066 67.2629 61.8382 67.4193L53.1533 67.431C53.0823 67.2746 53.0165 67.1041 52.9507 66.9243L62.0356 66.9126Z" fill="black"/>
<path d="M62.6488 64.5612C62.6146 64.727 62.5804 64.8951 62.5409 65.0679L52.4323 65.0819C52.3901 64.9091 52.3533 64.741 52.3191 64.5752L62.6488 64.5612Z" fill="black"/>
</g>
<path d="M28.7462 59.2903C25.7802 66.4829 25.896 72.7693 27.054 73.8062C29.5778 76.0667 40.5471 73.5727 43.2894 73.2247C44.3974 73.0869 41.0498 65.2241 39.8918 65.4927C37.1652 66.1279 33.2834 67.3212 33.1439 67.2862C32.8649 67.2161 33.1439 65.042 32.7833 59.2879C32.4991 54.6314 29.9594 56.3502 28.7462 59.2903Z" fill="#EB9481"/>
<path d="M53.7507 64.0542C53.8244 65.028 51.1031 64.9883 51.1031 64.9883C51.5144 65.1976 51.83 65.5281 51.9953 65.9224C52.2585 66.6229 51.1136 67.2955 51.1136 67.2955C51.4904 67.5906 51.7582 67.9796 51.8821 68.4117C52.0479 69.1123 51.0084 69.9273 51.0084 69.9273C51.1768 70.3693 51.1684 70.8493 50.9847 71.2864C50.0899 73.2083 44.0263 73.568 42.2735 73.3461L39.4207 65.7939C39.4207 65.7939 44.2842 62.597 46.7396 62.3681C48.1029 62.242 53.6349 62.5666 53.7507 64.0542Z" fill="#EB9481"/>
<path d="M51.0768 64.9626C49.6162 64.673 48.0792 64.6941 46.6028 64.7291C46.5976 64.7306 46.593 64.7336 46.5897 64.7376C46.5865 64.7416 46.5847 64.7464 46.5847 64.7513C46.5847 64.7562 46.5865 64.761 46.5897 64.765C46.593 64.7689 46.5976 64.7719 46.6028 64.7735C48.0792 64.8155 49.603 65.0233 51.0768 65.0257C51.0846 65.0238 51.0915 65.0197 51.0964 65.014C51.1013 65.0083 51.1039 65.0013 51.1039 64.9941C51.1039 64.987 51.1013 64.98 51.0964 64.9743C51.0915 64.9686 51.0846 64.9645 51.0768 64.9626Z" fill="#263238"/>
<path d="M51.0901 67.2535C50.7512 67.2138 50.4078 67.2138 50.0689 67.2535C49.7084 67.2791 49.3478 67.3095 48.9899 67.3445C48.2688 67.4146 47.5503 67.4987 46.8345 67.6014C46.8029 67.6014 46.8029 67.6504 46.8345 67.6481C47.553 67.5781 48.2714 67.5197 48.9925 67.4776L50.0742 67.4216C50.4154 67.4268 50.7562 67.3978 51.0901 67.3352C51.0983 67.3312 51.1051 67.3252 51.1099 67.318C51.1147 67.3109 51.1172 67.3027 51.1172 67.2943C51.1172 67.286 51.1147 67.2778 51.1099 67.2706C51.1051 67.2634 51.0983 67.2575 51.0901 67.2535Z" fill="#263238"/>
<path d="M50.9823 69.9297C50.6752 69.8994 50.3645 69.916 50.0638 69.9787L49.0821 70.0885C48.4268 70.1586 47.7662 70.2263 47.1135 70.2753C47.0793 70.2753 47.082 70.3244 47.1135 70.322C47.782 70.2753 48.4531 70.2356 49.119 70.1842L50.1032 70.1025C50.4053 70.1008 50.7047 70.0517 50.9875 69.9577C50.9981 69.9531 50.9823 69.932 50.9823 69.9297Z" fill="#263238"/>
<path d="M51.1321 70.5859C51.1729 70.9719 51.0561 71.358 50.8031 71.6741C50.5402 71.9852 50.1924 72.232 49.7925 72.391C49.0184 72.7222 48.2031 72.9714 47.3634 73.1336C46.5299 73.3044 45.6824 73.4161 44.829 73.4676C43.9746 73.5194 43.1166 73.5022 42.2656 73.4162H42.2972C41.6603 73.5166 41.0182 73.61 40.3787 73.6964C41.005 73.5501 41.634 73.4108 42.2656 73.2784H42.2893C43.1315 73.3201 43.9759 73.3068 44.8158 73.2387C45.6555 73.1742 46.4896 73.0627 47.3134 72.9048C48.1363 72.7502 48.9415 72.5289 49.7188 72.2439C50.1038 72.1059 50.4465 71.8891 50.7189 71.6111C50.9846 71.3213 51.1304 70.9595 51.1321 70.5859Z" fill="#263238"/>
<path d="M39.5182 65.3456L41.3473 74.1892C41.3473 74.1892 27.8226 76.5478 26.5067 73.7034C25.1908 70.8591 26.9015 61.7773 29.1174 58.1997C31.3334 54.6221 32.6677 56.551 32.9151 59.1338C33.1625 61.7166 33.273 66.9008 33.3335 66.8985C33.3941 66.8962 39.5182 65.3456 39.5182 65.3456Z" fill="#455A64"/>
<path d="M38.6128 72.4868L38.3497 70.9992C38.1742 70.0309 38.0128 69.0602 37.8654 68.0871C37.7812 67.55 37.7022 67.0129 37.6022 66.4782C37.6022 66.4707 37.5989 66.4636 37.593 66.4583C37.5871 66.4531 37.579 66.4501 37.5706 66.4501C37.5623 66.4501 37.5542 66.4531 37.5483 66.4583C37.5424 66.4636 37.5391 66.4707 37.5391 66.4782C37.5917 67.4566 37.7364 68.4304 37.8838 69.3996C38.0312 70.3687 38.1996 71.3168 38.397 72.2696C38.5128 72.816 38.6602 73.3555 38.8023 73.9043C38.8023 73.9229 38.8471 73.9183 38.8444 73.9043C38.7497 73.4209 38.6944 72.9538 38.6128 72.4868Z" fill="#263238"/>
<path d="M41.5079 74.2802C41.4474 73.9766 41.3868 73.6754 41.3053 73.3741C41.3011 73.3623 41.2923 73.3522 41.2804 73.3457C41.2686 73.3392 41.2544 73.3367 41.2407 73.3387C41.2269 73.3407 41.2144 73.347 41.2055 73.3565C41.1966 73.366 41.1918 73.3781 41.1921 73.3905C41.1921 73.6707 41.2316 73.9486 41.2632 74.2265C39.3881 74.5642 37.4885 74.7834 35.5785 74.8827C33.6366 74.9692 31.6899 74.9082 29.7597 74.7005C29.2886 74.6515 28.8149 74.6025 28.349 74.5207C27.9384 74.4647 27.5557 74.3022 27.2489 74.0537C26.6252 73.5236 26.4594 72.7389 26.3884 72.0033C26.3199 71.1556 26.3331 70.2986 26.3594 69.4486C26.3857 68.5985 26.4515 67.7298 26.5489 66.8798C26.6568 65.92 26.8121 64.9672 26.9989 64.0168C27.1858 63.0663 27.3884 62.0995 27.6542 61.1561C27.6542 61.1351 27.6227 61.1257 27.6148 61.1561C27.4481 61.6714 27.2937 62.1898 27.1516 62.7114C27.1516 62.6647 27.1516 62.6203 27.1516 62.5759C27.1516 62.4008 27.1516 62.2256 27.1516 62.0528C27.1516 62.0479 27.1494 62.0431 27.1454 62.0396C27.1415 62.0361 27.1361 62.0341 27.1305 62.0341C27.1249 62.0341 27.1196 62.0361 27.1156 62.0396C27.1117 62.0431 27.1095 62.0479 27.1095 62.0528C27.0588 62.2221 27.0314 62.3961 27.0279 62.5712C27.0279 62.66 27.0279 62.7464 27.0279 62.8351C27.0279 62.8888 27.0279 62.9472 27.0463 63.0033C26.7515 64.1134 26.524 65.2367 26.3647 66.3684C26.1253 68.1208 26.0224 69.8857 26.0568 71.6507C26.0699 72.4213 26.1594 73.2293 26.6515 73.8902C26.8614 74.1829 27.151 74.4238 27.4937 74.5908C27.9205 74.7594 28.3758 74.8643 28.8412 74.9014C30.7936 75.1608 32.7682 75.2655 34.7416 75.2143C36.9883 75.1777 39.223 74.9145 41.4026 74.4297C41.4219 74.4283 41.4405 74.4229 41.457 74.414C41.4735 74.4051 41.4874 74.3929 41.4976 74.3784C41.5079 74.3639 41.5141 74.3474 41.5159 74.3304C41.5177 74.3133 41.515 74.2961 41.5079 74.2802Z" fill="#263238"/>
<path d="M39.5521 65.327C39.5516 65.3178 39.5488 65.3088 39.544 65.3006C39.5391 65.2925 39.5323 65.2853 39.524 65.2798C39.5158 65.2742 39.5062 65.2703 39.4961 65.2684C39.4859 65.2665 39.4754 65.2665 39.4653 65.2686C38.9389 65.3713 38.4126 65.5021 37.8862 65.6329C37.3598 65.7637 36.8335 65.8664 36.3256 65.9995C35.3465 66.233 34.3701 66.4946 33.4069 66.7818C33.4438 66.3387 33.4438 65.8938 33.4069 65.4507C33.3832 64.937 33.3543 64.4256 33.3201 63.9118C33.2858 63.398 33.2516 62.8539 33.2148 62.3262C33.2592 62.1951 33.2943 62.0618 33.3201 61.9268C33.349 61.7357 33.3543 61.5422 33.3359 61.35C33.3359 61.3384 33.3122 61.3337 33.3095 61.35C33.2859 61.5392 33.2411 61.7283 33.2122 61.9175C33.2122 61.9595 33.1964 62.0039 33.1911 62.0459C33.1569 61.6326 33.12 61.2193 33.0727 60.8059C33.0727 60.7919 33.0464 60.7919 33.0464 60.8059C33.0279 61.8428 33.0674 62.8773 33.1016 63.9165C33.1174 64.4302 33.1358 64.944 33.1622 65.4577C33.17 65.9118 33.2175 66.3646 33.3043 66.8122H33.2753C32.7237 66.9786 32.1864 67.1799 31.6673 67.4147C31.6463 67.4147 31.6673 67.452 31.6831 67.4474C32.9727 67.1134 34.2464 66.7281 35.536 66.3988C36.1887 66.233 36.8519 66.0719 37.4941 65.9038C38.1362 65.7356 38.8099 65.5885 39.4416 65.3994C39.46 65.4624 39.4758 65.5278 39.4995 65.5908C39.5012 65.6001 39.5071 65.6084 39.5157 65.6139C39.5243 65.6194 39.5351 65.6216 39.5455 65.62C39.556 65.6185 39.5653 65.6133 39.5715 65.6057C39.5777 65.598 39.5802 65.5885 39.5784 65.5792C39.5705 65.4998 39.56 65.4134 39.5521 65.327Z" fill="#263238"/>
<path d="M31.4543 49.8885C31.4847 50.3787 31.4653 50.8703 31.3964 51.3574C31.2885 51.7334 30.3306 52.1304 30.3306 52.1304C30.3306 52.1304 31.4201 52.4737 31.7307 52.4083C32.0412 52.3429 32.5413 51.6377 32.5413 51.6377C32.5413 51.6377 32.0807 52.7656 31.6386 52.824C31.3622 52.8613 32.3123 52.8707 32.3123 52.8707C32.6274 52.8518 32.9235 52.7304 33.1439 52.5297C33.4676 52.2051 31.4543 49.8885 31.4543 49.8885Z" fill="#263238"/>
<path d="M35.523 58.0082C34.6045 58.0362 32.7202 56.4972 31.9912 55.2059C31.9412 55.1171 32.128 54.2087 32.2964 53.1041C32.3965 52.4292 32.4886 51.675 32.5149 50.9814L37.3758 52.17C37.0616 53.0286 36.8663 53.9178 36.7941 54.8182C36.7924 54.9136 36.8003 55.009 36.8178 55.1031C36.8178 55.1171 36.8178 55.1335 36.8178 55.1521C36.8994 55.7056 36.9573 57.9521 35.523 58.0082Z" fill="#EB9481"/>
<path d="M36.8154 55.1124C36.8173 55.1287 36.8173 55.1452 36.8154 55.1615C36.6473 55.1734 36.4783 55.1734 36.3101 55.1615C33.5231 55.0144 32.9625 51.9785 32.8599 51.0444L37.3786 52.17C37.0631 53.0292 36.8669 53.9192 36.7944 54.8205C36.7928 54.9182 36.7998 55.0158 36.8154 55.1124Z" fill="#263238"/>
<path d="M31.7701 45.4961C31.149 47.014 31.799 51.5117 32.978 52.5625C34.6834 54.0851 37.6073 54.3607 39.0996 52.5135C40.547 50.7247 39.5812 44.8772 38.2521 43.9104C36.3099 42.4859 32.6991 43.2566 31.7701 45.4961Z" fill="#EB9481"/>
<path d="M35.4545 47.6044C35.5953 47.5538 35.7332 47.4969 35.8676 47.434C36.0222 47.3914 36.157 47.3054 36.2517 47.1889C36.2736 47.1471 36.2791 47.1 36.2671 47.0551C36.2552 47.0102 36.2266 46.9702 36.1859 46.9415C36.0965 46.8951 35.9948 46.8707 35.8913 46.8707C35.7877 46.8707 35.686 46.8951 35.5966 46.9415C35.3992 47.0109 35.2372 47.1421 35.1415 47.3103C35.1282 47.3496 35.1268 47.3913 35.1375 47.4312C35.1481 47.4711 35.1704 47.5078 35.2022 47.5377C35.2339 47.5675 35.274 47.5894 35.3183 47.6011C35.3626 47.6128 35.4096 47.614 35.4545 47.6044Z" fill="#263238"/>
<path d="M38.836 47.3102C38.6848 47.2954 38.5346 47.2736 38.3861 47.2448C38.2246 47.2427 38.0683 47.1934 37.9415 47.1048C37.9078 47.0697 37.888 47.0259 37.8851 46.9799C37.8823 46.9339 37.8965 46.8884 37.9257 46.8503C37.997 46.7831 38.0873 46.734 38.1873 46.7082C38.2872 46.6823 38.393 46.6806 38.4939 46.7032C38.7031 46.7191 38.8986 46.8021 39.0438 46.9367C39.073 46.9712 39.0908 47.0122 39.0953 47.0552C39.0998 47.0982 39.0908 47.1414 39.0692 47.1801C39.0477 47.2188 39.0145 47.2515 38.9733 47.2744C38.9321 47.2974 38.8846 47.3098 38.836 47.3102Z" fill="#263238"/>
<path d="M36.0916 51.117C36.1811 51.18 36.2731 51.2711 36.3968 51.2711C36.5244 51.258 36.6474 51.2205 36.7572 51.1613C36.7598 51.1597 36.7629 51.1588 36.766 51.159C36.7692 51.1592 36.7722 51.1604 36.7744 51.1624C36.7767 51.1644 36.778 51.1671 36.7782 51.1699C36.7785 51.1727 36.7775 51.1754 36.7756 51.1777C36.7327 51.2414 36.6712 51.2937 36.5975 51.329C36.5239 51.3644 36.4409 51.3814 36.3573 51.3784C36.2856 51.3691 36.2188 51.3407 36.1657 51.2969C36.1126 51.2531 36.0758 51.1961 36.06 51.1333C36.0522 51.117 36.0785 51.1077 36.0916 51.117Z" fill="#263238"/>
<path d="M36.3521 50.1758C36.4519 50.2888 36.5772 50.382 36.7199 50.4496C36.8627 50.5171 37.0197 50.5575 37.1811 50.5682C37.3217 50.5805 37.4636 50.5742 37.6022 50.5495C37.629 50.5473 37.6554 50.5426 37.6811 50.5355L37.7548 50.5191C37.7728 50.5144 37.7886 50.5045 37.7996 50.491C37.8105 50.4775 37.8161 50.4611 37.8153 50.4444C37.8166 50.4343 37.8166 50.4241 37.8153 50.414V50.3883C37.7969 50.1548 37.7337 49.7999 37.7337 49.7999C37.8338 49.8326 38.347 49.9867 38.3259 49.8653C38.182 48.8135 37.9175 47.7775 37.5364 46.7734C37.5344 46.7676 37.5304 46.7625 37.525 46.7589C37.5195 46.7553 37.5129 46.7534 37.5061 46.7534C37.4993 46.7534 37.4927 46.7553 37.4872 46.7589C37.4818 46.7625 37.4778 46.7676 37.4758 46.7734C37.6022 47.7472 37.9232 48.693 38.0706 49.6691C37.8883 49.6121 37.6978 49.5783 37.5048 49.5687C37.4679 49.5803 37.6416 50.2506 37.6416 50.3557C37.6422 50.3595 37.6422 50.3635 37.6416 50.3673C37.4275 50.4046 37.2071 50.4031 36.9937 50.363C36.7803 50.3228 36.5781 50.2449 36.3994 50.1338C36.3521 50.1315 36.3284 50.1525 36.3521 50.1758Z" fill="#263238"/>
<path d="M37.4333 50.4443C37.3026 50.6253 37.1213 50.7733 36.9071 50.8738C36.7906 50.9248 36.6595 50.9435 36.5309 50.9275C36.252 50.8855 36.2204 50.6637 36.2494 50.4606C36.266 50.3568 36.296 50.255 36.3388 50.1572C36.6587 50.356 37.043 50.4568 37.4333 50.4443Z" fill="#263238"/>
<path d="M36.9203 50.8739C36.8038 50.9248 36.6727 50.9436 36.5441 50.9275C36.2652 50.8855 36.2336 50.6638 36.2626 50.4607C36.4088 50.453 36.5536 50.4897 36.6732 50.5648C36.7927 50.6399 36.8799 50.7489 36.9203 50.8739Z" fill="#FF9BBC"/>
<path d="M35.6521 48.6344C35.671 48.7155 35.7157 48.79 35.781 48.8492C35.8176 48.8809 35.8614 48.9055 35.9095 48.9211C35.9575 48.9368 36.0088 48.9433 36.0599 48.9402C36.1133 48.9376 36.1651 48.9235 36.211 48.8991C36.2568 48.8746 36.2953 48.8407 36.323 48.8001C36.3713 48.7294 36.3993 48.6493 36.4045 48.5667C36.4085 48.5193 36.4085 48.4717 36.4045 48.4243C36.3989 48.3233 36.3664 48.2249 36.3098 48.1371C36.3177 48.2093 36.3177 48.2821 36.3098 48.3543C36.3027 48.4194 36.2913 48.4841 36.2756 48.548C36.2388 48.6787 36.1625 48.7815 36.0494 48.7815C35.9362 48.7815 35.8336 48.7091 35.7863 48.5854C35.7299 48.4548 35.6885 48.3195 35.6626 48.1815C35.6173 48.3294 35.6137 48.4849 35.6521 48.6344Z" fill="#263238"/>
<path d="M38.2734 48.4056C38.2806 48.4896 38.3134 48.5702 38.3681 48.6391C38.3998 48.6748 38.4396 48.7042 38.4849 48.7256C38.5302 48.7469 38.58 48.7595 38.6312 48.7628C38.6835 48.7655 38.7358 48.7572 38.7838 48.7386C38.8319 48.7199 38.8742 48.6914 38.9074 48.6554C38.9645 48.5923 39.0033 48.5177 39.0205 48.4383C39.0323 48.3914 39.0402 48.3438 39.0442 48.2959C39.0523 48.1956 39.0343 48.0949 38.9916 48.0018C38.9912 48.0741 38.9815 48.1461 38.9626 48.2165C38.9472 48.2809 38.9261 48.3441 38.8995 48.4056C38.8443 48.5293 38.7548 48.6391 38.6364 48.618C38.518 48.597 38.4338 48.5223 38.3944 48.3846C38.3654 48.2468 38.3504 48.1069 38.3497 47.9667C38.2836 48.1051 38.2574 48.256 38.2734 48.4056Z" fill="#263238"/>
<path d="M31.8967 49.4893C32.8126 49.2067 33.1074 46.4137 33.1074 46.4137L33.3705 47.927C33.7911 47.5759 34.1238 47.1502 34.3469 46.6776C34.5015 46.1832 34.4942 45.6599 34.3259 45.169C35.0422 45.6006 35.8387 45.9168 36.6787 46.1031C37.1208 46.1849 39.9552 46.0891 39.9447 45.9116C39.9105 45.3815 38.9315 43.6138 38.0893 43.1654C37.1182 42.6493 34.8785 42.0165 32.9942 42.7684C31.4888 43.3686 31.7046 44.4171 31.4151 45.1737C31.4151 45.1737 30.3466 46.0284 30.3177 46.4394C30.2703 47.3221 31.5625 49.6013 31.8967 49.4893Z" fill="#263238"/>
<path d="M32.6388 49.1764C32.6388 49.1764 31.5545 47.7028 30.7965 48.0415C30.0386 48.3801 30.8229 50.4935 31.6782 50.8041C31.7847 50.8505 31.9008 50.8774 32.0193 50.8831C32.1379 50.8887 32.2565 50.8731 32.3681 50.8371C32.4796 50.8012 32.5819 50.7456 32.6687 50.6737C32.7554 50.6018 32.8249 50.5151 32.873 50.4187L32.6388 49.1764Z" fill="#EB9481"/>
<path d="M31.0438 48.6415C31.0307 48.6415 31.028 48.6578 31.0438 48.6625C31.6439 48.896 31.9439 49.4074 32.1492 49.9305C32.1156 49.8757 32.0692 49.828 32.0129 49.7906C31.9567 49.7531 31.8921 49.7269 31.8234 49.7136C31.7548 49.7003 31.6837 49.7003 31.615 49.7135C31.5463 49.7268 31.4817 49.753 31.4254 49.7904C31.4209 49.7923 31.4174 49.7957 31.4157 49.7998C31.4139 49.804 31.4141 49.8086 31.4162 49.8126C31.4183 49.8166 31.4221 49.8198 31.4268 49.8213C31.4315 49.8228 31.4367 49.8226 31.4412 49.8208C31.5489 49.7934 31.6635 49.7965 31.7692 49.8295C31.8748 49.8626 31.9662 49.924 32.0308 50.0053C32.1357 50.1421 32.2239 50.2885 32.2939 50.442C32.3229 50.491 32.4203 50.4676 32.4018 50.4116C32.4032 50.4078 32.4032 50.4037 32.4018 50.3999C32.4387 49.7134 31.8728 48.7349 31.0438 48.6415Z" fill="#263238"/>
<path d="M36.8103 54.5988L35.9655 57.3077L31.931 54.3887L31.0388 55.5399C31.0388 55.5399 35.2339 60.3879 35.226 60.1497L36.1471 57.8145L38.0867 59.1759L37.4577 55.2971L36.8103 54.5988Z" fill="#EBEBEB"/>
<path d="M37.8865 57.247C37.7575 56.6095 37.6496 55.965 37.4891 55.3344C37.4891 55.3111 37.4417 55.3041 37.4391 55.3344C37.3706 55.9696 37.8759 58.4053 37.947 58.9938C37.8654 58.9354 36.1679 57.7888 36.1547 57.8121C35.9389 58.1904 35.2626 59.9022 35.2205 60.0563C34.5573 59.2857 32.0308 56.4951 31.2728 55.7805C31.2684 55.777 31.2628 55.7749 31.257 55.7746C31.2511 55.7743 31.2453 55.7757 31.2404 55.7787C31.2356 55.7816 31.232 55.786 31.2302 55.7909C31.2285 55.7959 31.2286 55.8013 31.2307 55.8062C31.836 56.6305 35.1784 60.3903 35.2284 60.3762C35.5962 59.5639 35.9168 58.7354 36.189 57.8939C36.4837 58.1507 38.2181 59.4632 38.2102 59.3651C38.1446 58.6545 38.0366 57.9474 37.8865 57.247Z" fill="#263238"/>
</svg>
